<?xml version="1.0" encoding="UTF-8"?>
<svg version="1.1" xmlns="http://www.w3.org/2000/svg" width="512" height="512">
<path d="M0 0 C1.71678955 0.62201294 1.71678955 0.62201294 3.46826172 1.2565918 C4.68368652 1.69511475 5.89911133 2.1336377 7.15136719 2.58544922 C39.86162662 14.54868332 71.20481707 30.03384367 100.96826172 48.0690918 C101.9326416 48.65287598 102.89702148 49.23666016 103.890625 49.83813477 C106.71314886 51.5529835 109.52999942 53.27659571 112.34326172 55.0065918 C113.16866455 55.51383789 113.99406738 56.02108398 114.84448242 56.54370117 C119.91720661 59.6971698 124.80604978 63.03358283 129.63085938 66.55566406 C132.00650679 68.09385482 134.31243045 69.10924133 136.96826172 70.0690918 C136.65018555 71.64207031 136.65018555 71.64207031 136.32568359 73.24682617 C135.53520117 77.16651927 134.75490069 81.08818361 133.97753906 85.01049805 C133.64076266 86.70245236 133.30128852 88.39387216 132.95898438 90.0847168 C132.46524945 92.52604167 131.98149732 94.96917355 131.49951172 97.4128418 C131.34639526 98.15900757 131.19327881 98.90517334 131.03552246 99.6739502 C130.31715655 103.36530616 129.92060155 106.71976726 130.06005859 110.48510742 C130.02976562 111.66782227 129.99947266 112.85053711 129.96826172 114.0690918 C128.48326172 115.0590918 128.48326172 115.0590918 126.96826172 116.0690918 C125.65650109 118.53264224 124.4524912 120.97854927 123.28076172 123.5065918 C114.76764503 140.96215546 101.33505094 153.94759093 86.73242188 166.5456543 C84.50260047 168.47121277 82.3301327 170.45631307 80.15576172 172.4440918 C74.90629517 177.17499402 69.4699936 181.63634927 63.96826172 186.0690918 C62.85833431 186.98248344 61.74898355 187.89657614 60.64013672 188.8112793 C20.05878507 222.0690918 20.05878507 222.0690918 9.96826172 222.0690918 C9.81357422 223.2137793 9.81357422 223.2137793 9.65576172 224.3815918 C8.89218131 227.36649702 8.56287604 228.42583606 5.96826172 230.0690918 C2.59326172 230.7565918 2.59326172 230.7565918 -1.03173828 230.0690918 C-5.69076628 223.6729348 -8.92996876 216.41329487 -12.33544922 209.29516602 C-13.28775656 207.30652422 -14.24907995 205.32242327 -15.21142578 203.33862305 C-15.82394147 202.06674587 -16.43593945 200.79461922 -17.04736328 199.5222168 C-17.59682617 198.37914062 -18.14628906 197.23606445 -18.71240234 196.05834961 C-19.7684186 193.66570286 -20.45099256 191.59097646 -21.03173828 189.0690918 C-33.7186638 189.17853144 -46.40555342 189.29147512 -59.09241199 189.40843105 C-64.98875994 189.46268725 -70.88511273 189.51590638 -76.78149414 189.56640625 C-102.07725808 189.78378379 -127.36615396 190.04661715 -152.65400696 190.74205017 C-156.62054837 190.84996292 -160.58712148 190.94168494 -164.55437851 191.01890945 C-166.28571593 191.05398008 -168.01696156 191.09375693 -169.74811172 191.13709641 C-172.53898281 191.2029873 -175.32948739 191.24653778 -178.12084961 191.28564453 C-178.96374637 191.30902673 -179.80664312 191.33240892 -180.67508221 191.35649967 C-188.69312824 191.42762141 -196.64760647 189.93413931 -202.90673828 184.6315918 C-203.60541016 184.05538086 -204.30408203 183.47916992 -205.02392578 182.88549805 C-206.43877832 181.60552445 -207.80394693 180.26956106 -209.12939453 178.8972168 C-210.93562673 176.89155049 -210.93562673 176.89155049 -213.59423828 176.2565918 C-216.66108725 174.76248589 -216.7784765 173.34687139 -217.89501953 170.26831055 C-220.91383713 164.42778027 -226.52398685 158.90905673 -231.78955078 155.0456543 C-234.30855192 151.70161446 -234.38832291 150.53356242 -234.6340332 146.46313477 C-234.74092468 144.71303604 -234.74092468 144.71303604 -234.84997559 142.92758179 C-235.18185908 135.88230151 -235.43300292 128.83774551 -235.63720703 121.7878418 C-235.66085138 120.98959488 -235.68449574 120.19134796 -235.70885658 119.36891174 C-235.8332961 115.16164511 -235.95401776 110.9542917 -236.0715332 106.74682617 C-236.19326958 102.41469011 -236.32798149 98.08305555 -236.46551037 93.75139618 C-236.56956284 90.40070328 -236.66411393 87.04979047 -236.75606728 83.69874573 C-236.80156486 82.1006878 -236.85062486 80.50272704 -236.90337181 78.90489197 C-236.97600729 76.6778749 -237.03515976 74.45087995 -237.09106445 72.22338867 C-237.12801926 70.95910034 -237.16497406 69.69481201 -237.20304871 68.39221191 C-237.03364071 65.10599556 -236.55571001 62.9670582 -235.03173828 60.0690918 C-206.93816721 42.22003993 -161.04676981 48.8677681 -129.31298828 50.58862305 C-108.2492514 51.71495342 -87.2535025 52.26327879 -66.15673828 52.2565918 C-64.95620819 52.25740753 -63.7556781 52.25822327 -62.51876831 52.25906372 C-50.74095964 52.25815443 -38.97824745 52.16026261 -27.21142578 51.61987305 C-26.36428009 51.58137741 -25.5171344 51.54288177 -24.64431763 51.5032196 C-20.37200786 51.28067445 -16.24283275 50.87715752 -12.03173828 50.0690918 C-12.69173828 49.0790918 -13.35173828 48.0890918 -14.03173828 47.0690918 C-14.61773748 44.14185476 -15.11193489 41.25800108 -15.53955078 38.30737305 C-15.66989716 37.44274948 -15.80024353 36.57812592 -15.93453979 35.68730164 C-16.20872503 33.8562074 -16.4791475 32.02454638 -16.74609375 30.19238281 C-17.15285887 27.40814568 -17.57376803 24.62632224 -17.99658203 21.84448242 C-18.26175918 20.06140613 -18.52610838 18.27820647 -18.78955078 16.49487305 C-18.91451935 15.67062332 -19.03948792 14.8463736 -19.16824341 13.99714661 C-21.0212445 1.10994838 -21.0212445 1.10994838 -19.03173828 -2.9934082 C-13.36871303 -5.64795129 -5.47958318 -1.91830683 0 0 Z M-8.03173828 10.0690918 C-7.42775824 21.51966695 -7.42775824 21.51966695 -6.46923828 32.9440918 C-5.96343754 38.27131575 -5.47660451 43.73416213 -6.03173828 49.0690918 C-7.02173828 50.0590918 -7.02173828 50.0590918 -8.03173828 51.0690918 C-7.20673828 51.3784668 -6.38173828 51.6878418 -5.53173828 52.0065918 C-3.03173828 54.0690918 -3.03173828 54.0690918 -2.69970703 56.2722168 C-2.71765553 58.55526579 -2.81733988 60.79646876 -3.03173828 63.0690918 C-46.18129652 70.95028965 -94.29839675 66.41600651 -137.79760742 63.65116882 C-146.91942576 63.07227908 -156.01675361 62.82772245 -165.15673828 62.8190918 C-165.91121246 62.81808472 -166.66568665 62.81707764 -167.44302368 62.81604004 C-186.13968457 62.83277502 -204.02602468 64.9208689 -222.03173828 70.0690918 C-222.20536189 94.08524365 -221.70528067 118.06339629 -221.03173828 142.0690918 C-208.90401608 141.63361965 -196.77909089 141.1578253 -184.65673828 140.5925293 C-126.54940798 137.88797946 -68.45274319 136.7127398 -10.34423828 140.0690918 C-9.61682434 140.11088562 -8.8894104 140.15267944 -8.13995361 140.19573975 C-6.07887136 140.31612112 -4.01816397 140.44145381 -1.95751953 140.5690918 C-0.78616455 140.6412793 0.38519043 140.7134668 1.59204102 140.7878418 C6.45342892 141.19281098 11.26200107 141.75133881 15.96826172 143.0690918 C16.0505284 146.11295904 15.94434389 148.14084528 14.96826172 151.0690918 C15.29185339 153.70152768 15.29185339 153.70152768 15.96435547 156.61206055 C16.19316406 157.68520508 16.42197266 158.75834961 16.65771484 159.86401367 C16.90457031 160.98356445 17.15142578 162.10311523 17.40576172 163.2565918 C17.64875 164.38774414 17.89173828 165.51889648 18.14208984 166.68432617 C18.74386881 169.48082842 19.35285623 172.27556222 19.96826172 175.0690918 C29.34625376 168.06163167 38.34869912 160.86128796 46.91357422 152.87768555 C49.11972613 150.82629317 51.37718768 148.84809521 53.66088867 146.88354492 C57.92279834 143.15958661 61.94602981 139.23602021 65.94091797 135.22924805 C67.03103432 134.14056679 67.03103432 134.14056679 68.14317322 133.02989197 C69.66788468 131.50585624 71.19135322 129.9805761 72.71362305 128.45410156 C75.02460063 126.13776716 77.34086943 123.82682102 79.65771484 121.51635742 C81.14826992 120.02514146 82.63851472 118.53361527 84.12841797 117.04174805 C85.15214256 116.0210598 85.15214256 116.0210598 86.19654846 114.97975159 C90.10154277 111.05594613 93.83117586 107.03041488 97.44178772 102.8336792 C99.67917885 100.2472793 102.01231956 97.7590297 104.34326172 95.2565918 C110.25306725 88.86175267 116.13160076 82.32408324 120.96826172 75.0690918 C102.66087523 62.5313059 83.58394299 51.42804939 63.96826172 41.0690918 C63.0675293 40.59004395 62.16679687 40.11099609 61.23876953 39.61743164 C48.18563167 32.72218273 34.83467247 26.74632343 21.21826172 21.0690918 C20.06435944 20.58682632 20.06435944 20.58682632 18.887146 20.09481812 C10.01786463 16.40056879 1.14966557 12.92967432 -8.03173828 10.0690918 Z M124.96826172 87.0690918 C118.15468086 93.72339414 111.91770533 100.63228728 105.96826172 108.0690918 C110.91826172 108.0690918 115.86826172 108.0690918 120.96826172 108.0690918 C121.83107532 104.94624394 122.68382441 101.82124495 123.53076172 98.6940918 C123.77761719 97.80463867 124.02447266 96.91518555 124.27880859 95.9987793 C124.50761719 95.14799805 124.73642578 94.2972168 124.97216797 93.4206543 C125.18687744 92.63513184 125.40158691 91.84960938 125.62280273 91.0402832 C126.18175768 89.0003348 126.18175768 89.0003348 124.96826172 87.0690918 Z M93.53857422 117.81518555 C92.37184237 119.0283215 91.22380851 120.25966518 90.09326172 121.5065918 C89.50029297 122.13114258 88.90732422 122.75569336 88.29638672 123.39916992 C86.83737752 124.94054254 85.40058323 126.5028886 83.96826172 128.0690918 C87.19236332 128.96416101 89.08110332 129.00684798 92.34326172 128.1940918 C96.72743741 127.17784899 100.78539175 127.00069667 105.28076172 126.9440918 C110.09180123 126.77203221 110.09180123 126.77203221 113.97216797 124.2644043 C116.15077956 120.90785187 116.15077956 120.90785187 116.96826172 117.0690918 C116.02724609 117.00850586 115.08623047 116.94791992 114.11669922 116.88549805 C112.87146484 116.80170898 111.62623047 116.71791992 110.34326172 116.6315918 C109.11349609 116.55038086 107.88373047 116.46916992 106.61669922 116.38549805 C102.96826172 116.0690918 102.96826172 116.0690918 99.93701172 115.1315918 C96.43552163 115.05787622 96.02413199 115.52475763 93.53857422 117.81518555 Z M91.84741211 134.89501953 C90.39256162 135.21801352 88.93682898 135.5370607 87.48022461 135.85205078 C85.37393479 136.30754881 83.27057791 136.77488203 81.16748047 137.24487305 C79.90766357 137.52242432 78.64784668 137.79997559 77.34985352 138.0859375 C72.52245189 139.4894424 69.77331787 140.86150757 66.96826172 145.0690918 C68.12841797 144.90151367 69.28857422 144.73393555 70.48388672 144.5612793 C72.06146637 144.35140924 73.63964135 144.14598466 75.21826172 143.9440918 C76.03931396 143.83774414 76.86036621 143.73139648 77.70629883 143.62182617 C82.72239273 143.05973278 86.60760409 143.20261225 91.53076172 144.5690918 C94.28524229 145.32794436 94.28524229 145.32794436 96.96826172 145.0690918 C101.5775432 141.68227192 105.1498475 137.52433444 106.96826172 132.0690918 C101.91752031 132.0690918 96.77608024 133.79526158 91.84741211 134.89501953 Z M-159.03173828 151.0690918 C-158.70173828 153.0490918 -158.37173828 155.0290918 -158.03173828 157.0690918 C-164.72373604 161.91198491 -171.60731274 166.44272183 -178.53173828 170.9440918 C-179.42860352 171.52763428 -180.32546875 172.11117676 -181.24951172 172.71240234 C-187.76947944 176.93796238 -187.76947944 176.93796238 -190.03173828 178.0690918 C-190.03173828 178.7290918 -190.03173828 179.3890918 -190.03173828 180.0690918 C-184.09173828 180.0690918 -178.15173828 180.0690918 -172.03173828 180.0690918 C-172.03173828 178.4190918 -172.03173828 176.7690918 -172.03173828 175.0690918 C-170.80371094 173.29125977 -170.80371094 173.29125977 -169.07080078 171.6862793 C-168.43045898 171.09169922 -167.79011719 170.49711914 -167.13037109 169.88452148 C-163.64233319 166.86718204 -160.07264162 163.99209576 -156.40673828 161.1940918 C-155.30072266 160.32397461 -155.30072266 160.32397461 -154.17236328 159.4362793 C-153.45306641 158.88456055 -152.73376953 158.3328418 -151.99267578 157.7644043 C-151.35120605 157.26956543 -150.70973633 156.77472656 -150.04882812 156.26489258 C-147.68951004 154.86620703 -145.74893021 154.37658261 -143.03173828 154.0690918 C-142.37173828 154.3990918 -141.71173828 154.7290918 -141.03173828 155.0690918 C-140.56298828 158.1862793 -140.56298828 158.1862793 -141.03173828 162.0690918 C-143.17663851 164.60661265 -145.79113731 166.34272838 -148.53173828 168.1940918 C-149.22783203 168.69295898 -149.92392578 169.19182617 -150.64111328 169.70581055 C-154.84282363 172.68591251 -159.16405458 175.43453519 -163.58056641 178.08422852 C-164.05945313 178.4092334 -164.53833984 178.73423828 -165.03173828 179.0690918 C-165.03173828 179.3990918 -165.03173828 179.7290918 -165.03173828 180.0690918 C-157.06896305 181.07030525 -157.06896305 181.07030525 -149.69189453 178.6394043 C-148.27556753 177.28560228 -146.89067771 175.89845904 -145.53173828 174.48706055 C-142.48443404 171.53974598 -139.20044814 169.31275967 -135.65673828 167.0065918 C-135.01260986 166.58595459 -134.36848145 166.16531738 -133.70483398 165.73193359 C-132.42588005 164.90129941 -131.14506267 164.07352669 -129.86230469 163.2487793 C-128.15475945 162.14837137 -126.45802829 161.03123288 -124.76220703 159.9128418 C-116.92733607 154.79447897 -116.92733607 154.79447897 -113.03173828 154.0690918 C-113.11486827 156.73903154 -113.51330605 158.5127162 -115.359375 160.49389648 C-117.185509 162.04356607 -119.05610252 163.50317551 -120.96923828 164.9440918 C-121.64349854 165.467854 -122.31775879 165.99161621 -123.01245117 166.53125 C-127.68734762 170.13524506 -132.46323069 173.58184526 -137.37158203 176.86206055 C-137.91943359 177.26038086 -138.46728516 177.65870117 -139.03173828 178.0690918 C-139.03173828 178.3990918 -139.03173828 178.7290918 -139.03173828 179.0690918 C-133.66064788 179.09400409 -128.28959189 179.1120514 -122.91845703 179.12402344 C-121.09520888 179.12901996 -119.27196466 179.13581944 -117.44873047 179.14453125 C-114.81232728 179.15680366 -112.17597755 179.16236705 -109.53955078 179.16674805 C-108.73808624 179.17190933 -107.9366217 179.17707062 -107.11087036 179.18238831 C-101.36612559 179.18294456 -95.73678769 178.73192672 -90.03173828 178.0690918 C-89.93376953 177.31241211 -89.83580078 176.55573242 -89.73486328 175.77612305 C-87.77732792 168.23961191 -77.70901206 163.78661425 -71.50830078 160.0690918 C-66.09527034 156.92305701 -60.57747698 153.97357033 -55.03173828 151.0690918 C-55.03173828 150.7390918 -55.03173828 150.4090918 -55.03173828 150.0690918 C-62.62173828 150.0690918 -70.21173828 150.0690918 -78.03173828 150.0690918 C-77.04173828 153.0390918 -77.04173828 153.0390918 -76.03173828 156.0690918 C-78.80168095 159.05256924 -81.44189962 161.05774831 -85.02392578 162.97924805 C-85.97654297 163.49422852 -86.92916016 164.00920898 -87.91064453 164.53979492 C-89.39371094 165.32773437 -89.39371094 165.32773437 -90.90673828 166.1315918 C-91.88771484 166.66075195 -92.86869141 167.18991211 -93.87939453 167.73510742 C-95.76584749 168.74961687 -97.65599591 169.75729368 -99.55029297 170.75708008 C-101.02733881 171.53803682 -102.49902347 172.3294973 -103.95849609 173.14282227 C-105.53955078 174.00268555 -105.53955078 174.00268555 -108.03173828 175.0690918 C-109.51673828 174.5740918 -109.51673828 174.5740918 -111.03173828 174.0690918 C-110.7284166 170.91569093 -110.4577791 169.46081845 -108.08569336 167.27978516 C-107.2493335 166.74490479 -106.41297363 166.21002441 -105.55126953 165.65893555 C-104.63410156 165.06145508 -103.71693359 164.46397461 -102.77197266 163.84838867 C-101.32274414 162.93669922 -101.32274414 162.93669922 -99.84423828 162.0065918 C-98.89742188 161.39493164 -97.95060547 160.78327148 -96.97509766 160.15307617 C-94.33375495 158.44809222 -91.68383849 156.75727288 -89.03173828 155.0690918 C-87.00005683 153.7693082 -85.00742234 152.45373087 -83.03173828 151.0690918 C-83.03173828 150.7390918 -83.03173828 150.4090918 -83.03173828 150.0690918 C-90.15860195 150.04327089 -97.28545313 150.02603278 -104.41235352 150.01416016 C-106.82576956 150.00919922 -109.23918271 150.00242836 -111.65258789 149.99365234 C-127.47550971 149.93764783 -143.23075133 150.20888603 -159.03173828 151.0690918 Z M-44.96923828 153.4440918 C-45.91669922 154.17112305 -46.86416016 154.8981543 -47.84033203 155.6472168 C-48.60579346 156.23599609 -48.60579346 156.23599609 -49.38671875 156.83666992 C-58.08740321 163.3550812 -67.35269283 169.13180094 -77.03173828 174.0690918 C-78.02560547 174.57762695 -78.02560547 174.57762695 -79.03955078 175.09643555 C-80.36469512 175.76517118 -81.69698293 176.41975136 -83.03173828 177.0690918 C-83.03173828 177.3990918 -83.03173828 177.7290918 -83.03173828 178.0690918 C-72.85293668 179.50902941 -72.85293668 179.50902941 -63.64892578 175.90112305 C-61.05825783 173.59177023 -58.70829607 171.06044246 -56.37695312 168.49243164 C-54.40521523 166.40618265 -52.2228928 164.65408931 -49.96923828 162.8815918 C-49.17646484 162.25768555 -48.38369141 161.6337793 -47.56689453 160.9909668 C-43.79377205 158.13060276 -39.95101527 155.37068534 -36.08642578 152.63549805 C-35.40837891 152.11858398 -34.73033203 151.60166992 -34.03173828 151.0690918 C-34.03173828 150.7390918 -34.03173828 150.4090918 -34.03173828 150.0690918 C-38.94897067 149.68370638 -41.13780341 150.38136503 -44.96923828 153.4440918 Z M-28.03173828 150.0690918 C-27.70069092 150.67785156 -27.36964355 151.28661133 -27.02856445 151.91381836 C-26.03173828 154.0690918 -26.03173828 154.0690918 -26.08251953 156.5534668 C-27.38775546 160.01261057 -29.22202796 161.18105537 -32.21923828 163.3190918 C-33.29044922 164.08737305 -34.36166016 164.8556543 -35.46533203 165.6472168 C-39.79154279 168.62110768 -44.20356677 171.46572965 -48.66137695 174.23803711 C-50.13328746 175.15795521 -51.58489212 176.11023517 -53.03173828 177.0690918 C-53.03173828 177.3990918 -53.03173828 177.7290918 -53.03173828 178.0690918 C-52.04254395 178.08891113 -51.05334961 178.10873047 -50.03417969 178.12915039 C-46.37001751 178.20512635 -42.70625665 178.29385532 -39.04248047 178.38647461 C-37.4556469 178.42479765 -35.86872547 178.45964468 -34.28173828 178.4909668 C-32.00277262 178.53654611 -29.7244136 178.59455018 -27.44580078 178.6550293 C-26.73428864 178.66658051 -26.02277649 178.67813171 -25.28970337 178.69003296 C-20.25948169 178.84134838 -20.25948169 178.84134838 -18.03173828 181.0690918 C-17.72623047 180.43745117 -17.42072266 179.80581055 -17.10595703 179.1550293 C-12.72788559 170.59620794 -7.05510647 163.49192386 -1.03173828 156.0690918 C-0.02315712 154.74223769 0.9815114 153.41226029 1.96826172 152.0690918 C-0.82293919 150.67349134 -3.2337952 150.85100892 -6.35205078 150.75268555 C-7.60888672 150.71079102 -8.86572266 150.66889648 -10.16064453 150.62573242 C-11.47935547 150.58641602 -12.79806641 150.54709961 -14.15673828 150.5065918 C-15.49659579 150.46339668 -16.83643984 150.41978207 -18.17626953 150.37573242 C-21.46131643 150.26938198 -24.74644109 150.16735372 -28.03173828 150.0690918 Z M62.40576172 154.5065918 C61.73955811 154.71179443 61.07335449 154.91699707 60.38696289 155.12841797 C54.2461118 157.12234257 49.90064368 159.93662464 45.15576172 164.2565918 C44.36556641 164.97202148 43.57537109 165.68745117 42.76123047 166.42456055 C42.16955078 166.96725586 41.57787109 167.50995117 40.96826172 168.0690918 C43.88513044 169.52752616 45.67750239 168.60447163 48.82373047 167.85424805 C50.00386719 167.58032227 51.18400391 167.30639648 52.39990234 167.02416992 C54.88444285 166.4337201 57.36882065 165.84258515 59.85302734 165.25073242 C61.03960937 164.97551758 62.22619141 164.70030273 63.44873047 164.41674805 C64.53049561 164.15901611 65.61226074 163.90128418 66.72680664 163.63574219 C69.96826172 163.0690918 69.96826172 163.0690918 73.65527344 163.14672852 C77.15542571 163.06470579 78.06599912 162.85336458 80.49560547 160.47924805 C81.05957031 159.94235352 81.62353516 159.40545898 82.20458984 158.85229492 C82.76597656 158.28446289 83.32736328 157.71663086 83.90576172 157.1315918 C84.78844727 156.28564453 84.78844727 156.28564453 85.68896484 155.42260742 C87.14970638 154.00597654 88.56359981 152.54134646 89.96826172 151.0690918 C89.96826172 150.7390918 89.96826172 150.4090918 89.96826172 150.0690918 C80.50973782 149.8760607 71.3918087 151.71774691 62.40576172 154.5065918 Z M-193.03173828 153.0690918 C-193.26634766 153.95338867 -193.50095703 154.83768555 -193.74267578 155.7487793 C-195.55815392 160.42501088 -198.65350676 163.17820121 -202.13330078 166.7019043 C-204.4488293 169.08343332 -204.4488293 169.08343332 -204.03173828 173.0690918 C-201.10851863 175.35148351 -201.10851863 175.35148351 -198.03173828 177.0690918 C-197.77521484 176.48385742 -197.51869141 175.89862305 -197.25439453 175.2956543 C-192.50614624 166.64868457 -182.09751824 161.94486049 -173.82470703 157.26831055 C-171.06896961 155.70438781 -168.49946761 154.07047857 -166.03173828 152.0690918 C-175.09154418 151.94684554 -184.00919942 152.22978586 -193.03173828 153.0690918 Z M-221.03173828 155.0690918 C-219.70254536 158.03719249 -218.25311685 160.07472969 -215.90673828 162.3190918 C-214.48361328 163.6803418 -214.48361328 163.6803418 -213.03173828 165.0690918 C-207.68652213 163.56574975 -203.89665812 159.89789089 -200.03173828 156.0690918 C-199.70173828 155.4090918 -199.37173828 154.7490918 -199.03173828 154.0690918 C-206.42228588 153.92193488 -213.67598663 154.36132188 -221.03173828 155.0690918 Z M5.96826172 161.0690918 C4.34149081 163.20679798 2.82846527 165.3366452 1.34326172 167.5690918 C0.92302734 168.18913086 0.50279297 168.80916992 0.06982422 169.44799805 C-0.97010995 170.98426443 -2.00170884 172.52616703 -3.03173828 174.0690918 C0.35100438 175.19667268 1.73604395 174.88659442 5.15576172 174.1315918 C6.74388672 173.7809668 8.33201172 173.4303418 9.96826172 173.0690918 C9.30826172 169.1090918 8.64826172 165.1490918 7.96826172 161.0690918 C7.30826172 161.0690918 6.64826172 161.0690918 5.96826172 161.0690918 Z M59.19873047 170.3815918 C57.49426758 170.78764648 57.49426758 170.78764648 55.75537109 171.2019043 C53.36670594 171.77736134 50.97867609 172.35546222 48.59130859 172.9362793 C46.88104492 173.34233398 46.88104492 173.34233398 45.13623047 173.7565918 C43.57811646 174.13364258 43.57811646 174.13364258 41.98852539 174.51831055 C38.96826172 175.0690918 38.96826172 175.0690918 35.76098633 175.00512695 C32.7142176 174.78812428 32.7142176 174.78812428 30.11669922 177.4050293 C29.17642685 178.40340839 28.25216972 179.4170771 27.34326172 180.4440918 C22.35457364 185.90393375 22.35457364 185.90393375 19.90161133 186.95263672 C17.80372874 187.91612881 17.80372874 187.91612881 17.03930664 190.08447266 C16.8444165 190.89279541 16.64952637 191.70111816 16.44873047 192.53393555 C16.23152344 193.41629883 16.01431641 194.29866211 15.79052734 195.20776367 C15.58105469 196.13137695 15.37158203 197.05499023 15.15576172 198.0065918 C14.92695313 198.92633789 14.69814453 199.84608398 14.46240234 200.79370117 C13.08889684 205.94408431 13.08889684 205.94408431 13.96826172 211.0690918 C14.45593018 210.68688477 14.94359863 210.30467773 15.44604492 209.91088867 C24.51340965 202.81162584 33.57309731 195.7326225 42.96826172 189.0690918 C42.30826172 188.7390918 41.64826172 188.4090918 40.96826172 188.0690918 C38.66831203 188.80747057 38.66831203 188.80747057 36.15576172 189.9440918 C32.75695587 191.4146795 29.62477177 192.4520147 25.96826172 193.0690918 C26.29826172 191.4190918 26.62826172 189.7690918 26.96826172 188.0690918 C29.9249639 187.06422284 32.88387749 186.06603155 35.84326172 185.0690918 C36.68501953 184.78291992 37.52677734 184.49674805 38.39404297 184.2019043 C39.19970703 183.93120117 40.00537109 183.66049805 40.83544922 183.3815918 C41.57907715 183.13022461 42.32270508 182.87885742 43.08886719 182.61987305 C44.96826172 182.0690918 44.96826172 182.0690918 46.96826172 182.0690918 C47.62826172 183.0590918 48.28826172 184.0490918 48.96826172 185.0690918 C51.38820179 183.15652949 53.80360559 181.2383194 56.21826172 179.3190918 C56.90017578 178.78026367 57.58208984 178.24143555 58.28466797 177.6862793 C61.70056327 174.96682867 64.96736884 172.25560692 67.96826172 169.0690918 C64.79759032 169.0690918 62.27781181 169.63404423 59.19873047 170.3815918 Z M-3.34423828 182.0690918 C-4.59817383 182.49834961 -4.59817383 182.49834961 -5.87744141 182.9362793 C-7.93121327 183.64042965 -9.98180289 184.35384954 -12.03173828 185.0690918 C-11.37173828 186.7190918 -10.71173828 188.3690918 -10.03173828 190.0690918 C-3.10173828 188.7490918 3.82826172 187.4290918 10.96826172 186.0690918 C12.42140836 181.46376791 12.42140836 181.46376791 10.96826172 179.0690918 C5.81389584 178.56520267 1.43855297 180.39303867 -3.34423828 182.0690918 Z M-0.71923828 195.0690918 C-2.21003906 195.3475293 -2.21003906 195.3475293 -3.73095703 195.6315918 C-4.49021484 195.7759668 -5.24947266 195.9203418 -6.03173828 196.0690918 C-4.60423847 199.85958887 -2.86937286 203.34031636 -0.90673828 206.8815918 C-0.36791016 207.85741211 0.17091797 208.83323242 0.72607422 209.83862305 C1.13599609 210.57467773 1.54591797 211.31073242 1.96826172 212.0690918 C4.83459116 209.20276235 5.19982852 205.77592753 6.09326172 201.9440918 C6.27501953 201.18999023 6.45677734 200.43588867 6.64404297 199.65893555 C7.0918088 197.79717234 7.53086894 195.93331926 7.96826172 194.0690918 C4.92264889 194.0690918 2.2700077 194.5064102 -0.71923828 195.0690918 Z " fill="#FFFFFF" transform="translate(306.03173828125,142.930908203125)"/>
<path d="M0 0 C1 1 1 1 1.25390625 3.36328125 C0.94557535 6.56517906 0.37782206 7.17203231 -2.0625 9.1875 C-6.13227952 12.47687377 -10.3921124 15.51379254 -14.6875 18.5 C-15.32888916 18.95785889 -15.97027832 19.41571777 -16.63110352 19.88745117 C-19.58296645 21.87899105 -21.33837849 23.04894426 -24.95703125 22.78125 C-25.63121094 22.5234375 -26.30539062 22.265625 -27 22 C-27.44140625 19.875 -27.44140625 19.875 -27 17 C-24.9182244 14.65495719 -22.44799793 12.86453569 -19.9375 11 C-19.28072266 10.49210937 -18.62394531 9.98421875 -17.94726562 9.4609375 C-15.98146091 7.95026984 -13.99489198 6.47197351 -12 5 C-11.35417969 4.51321777 -10.70835937 4.02643555 -10.04296875 3.52490234 C-4.26476677 -0.7526059 -4.26476677 -0.7526059 0 0 Z " fill="#FFFFFF" transform="translate(300,297)"/>
</svg>
